<?xml version="1.0" standalone="no"?>
<!DOCTYPE svg PUBLIC "-//W3C//DTD SVG 20010904//EN"
    'http://www.w3.org/TR/2001/REC-SVG-20010904/DTD/svg10.dtd'>
<svg version="1.0" xmlns="http://www.w3.org/2000/svg"
    width="512.000000pt" height="512.000000pt" viewBox="0 0 512.000000 512.000000"
    preserveAspectRatio="xMidYMid meet">

    <g transform="translate(0.000000,512.000000) scale(0.100000,-0.100000)"
        fill="#000000" stroke="none">
        <path d="M2689 5101 c-71 -23 -142 -71 -181 -124 -16 -23 -168 -317 -336 -653
l-306 -612 -85 -37 c-186 -82 -405 -208 -508 -292 -103 -84 -111 -222 -20
-317 53 -55 91 -66 231 -66 83 0 107 -3 103 -12 -3 -7 -22 -50 -41 -96 -79
-184 -115 -391 -97 -554 6 -51 15 -109 21 -128 5 -19 10 -41 10 -47 0 -10 -69
-13 -318 -13 -178 0 -332 -4 -351 -10 -19 -5 -37 -8 -39 -5 -2 2 -24 272 -49
600 l-45 596 37 41 c152 167 115 445 -76 568 -74 48 -140 64 -238 58 -62 -4
-88 -11 -139 -38 -244 -130 -282 -451 -76 -628 l44 -37 27 -359 c24 -327 29
-362 47 -382 31 -34 67 -39 99 -14 25 20 27 27 27 88 0 37 -4 119 -10 182 -5
63 -11 153 -14 200 -4 47 -9 117 -12 156 l-6 72 68 4 c38 3 70 4 72 3 1 -1 18
-206 37 -456 19 -250 40 -519 46 -599 l11 -145 -36 -54 c-100 -149 -86 -340
35 -477 l44 -50 45 -596 c24 -329 41 -601 37 -605 -4 -4 -37 -9 -72 -11 -50
-3 -65 -1 -65 9 0 8 -34 463 -75 1013 -41 549 -75 1009 -75 1023 0 14 -13 38
-30 55 -25 24 -36 29 -58 23 -48 -12 -62 -33 -62 -93 0 -30 34 -508 76 -1061
73 -977 76 -1007 99 -1047 34 -58 73 -74 182 -74 134 1 189 27 224 106 18 40
18 49 -21 570 -21 291 -41 550 -44 577 l-5 47 74 0 74 0 6 -44 c15 -99 93
-184 187 -205 51 -12 82 -5 328 68 74 22 136 38 138 36 3 -2 -21 -217 -52
-477 -31 -260 -56 -493 -55 -518 1 -91 56 -179 140 -225 l54 -30 1085 0 1085
0 53 29 c76 42 127 116 138 199 4 27 -16 231 -51 530 -32 268 -56 489 -54 492
3 2 88 -21 189 -51 160 -48 194 -55 251 -52 52 3 75 9 108 31 53 35 99 107
107 168 l6 47 87 4 c67 3 99 10 143 32 76 36 144 106 182 186 27 58 31 75 31
155 0 80 -4 97 -31 155 -39 83 -101 145 -184 184 l-65 31 -337 3 c-187 2 -338
7 -338 12 0 5 7 42 16 82 21 96 21 271 0 378 -17 93 -58 220 -100 314 -14 32
-26 60 -26 62 0 2 48 4 108 4 137 0 177 11 228 64 70 73 83 186 30 266 -47 71
-329 247 -546 340 l-95 40 -307 613 c-169 336 -321 631 -338 654 -60 82 -188
144 -294 142 -28 0 -76 -8 -107 -18z m206 -160 c22 -10 50 -29 61 -42 20 -22
414 -787 414 -802 0 -4 -55 -7 -122 -7 -111 0 -124 -2 -145 -22 -30 -28 -30
-74 -1 -105 21 -22 27 -23 185 -23 l163 0 50 -100 c27 -55 50 -102 50 -105 0
-3 -337 -5 -750 -5 -412 0 -750 2 -750 5 0 3 21 47 47 98 l46 94 165 6 c91 4
258 7 371 7 224 0 242 4 255 55 7 29 -15 79 -39 89 -9 3 -163 6 -341 6 l-324
0 191 383 c105 210 202 396 215 413 52 69 173 95 259 55z m-2377 -1107 c83
-34 141 -120 142 -209 0 -141 -131 -254 -263 -225 -62 13 -84 24 -129 68 -113
108 -72 303 77 368 41 18 128 17 173 -2z m3368 -364 c184 -92 344 -193 367
-231 16 -25 0 -69 -29 -79 -29 -11 -2457 -14 -2703 -3 -144 6 -153 7 -168 29
-8 13 -12 32 -8 44 14 43 240 183 455 282 l125 57 881 1 881 0 199 -100z
m-2023 -512 c-12 -31 -17 -77 -17 -168 -1 -151 18 -210 94 -293 47 -52 136
-108 192 -121 l27 -6 -21 -36 c-44 -75 -6 -150 103 -198 193 -87 385 -84 519
9 l37 25 58 -35 c74 -44 111 -55 206 -62 138 -10 348 62 397 136 27 42 28 75
3 123 l-20 36 59 21 c106 39 194 125 234 228 28 73 32 220 8 311 l-18 72 56 0
57 0 46 -97 c91 -194 122 -327 115 -507 -8 -200 -69 -344 -210 -492 -117 -123
-252 -212 -453 -299 -229 -99 -360 -172 -463 -259 -60 -50 -86 -48 -160 14
-84 70 -184 130 -320 190 -337 149 -424 201 -558 335 -157 157 -224 302 -232
507 -7 177 25 316 115 511 l46 97 58 0 58 0 -16 -42z m1710 0 c72 -192 35
-349 -99 -414 -30 -15 -77 -29 -102 -31 -46 -5 -48 -4 -95 51 -62 72 -135 121
-216 146 -78 25 -140 25 -208 1 -51 -17 -55 -17 -105 0 -140 48 -306 -9 -424
-146 -56 -64 -77 -68 -171 -34 -116 43 -171 141 -160 284 3 38 15 96 27 128
l21 57 758 0 758 0 16 -42z m-835 -410 l62 -31 65 33 c55 28 71 32 110 27 91
-13 147 -58 263 -215 34 -46 62 -85 62 -87 0 -2 -30 -14 -67 -27 -50 -17 -89
-23 -148 -22 -93 0 -134 17 -215 89 -30 26 -60 45 -74 45 -15 0 -41 -17 -68
-44 -71 -70 -119 -90 -213 -90 -59 -1 -98 5 -148 23 -37 12 -67 26 -65 29 2 4
26 38 53 76 154 215 250 263 383 194z m-1768 -773 l0 -225 -52 0 c-83 0 -126
17 -177 68 -95 96 -95 219 0 314 52 52 87 66 172 67 l57 1 0 -225z m622 158
c60 -91 134 -171 228 -246 109 -87 215 -148 414 -236 215 -96 283 -134 385
-216 135 -107 221 -113 332 -22 126 103 174 130 417 238 318 140 493 272 636
477 l50 72 208 0 208 0 0 -327 c0 -322 0 -327 -22 -350 -12 -13 -33 -23 -48
-23 -15 0 -133 32 -264 71 -133 39 -251 69 -268 67 -20 -2 -38 -13 -51 -30
l-20 -27 67 -566 c67 -562 67 -566 49 -598 -10 -18 -34 -40 -53 -50 -33 -16
-99 -17 -1070 -15 -984 3 -1037 4 -1064 21 -62 41 -62 30 9 629 36 299 65 553
65 566 0 32 -43 72 -77 72 -15 0 -134 -32 -263 -70 -240 -72 -268 -77 -300
-60 -35 19 -40 64 -40 381 l0 309 214 0 213 0 45 -67z m3183 56 c26 -7 56 -28
85 -58 88 -90 93 -207 11 -302 -46 -55 -100 -79 -178 -79 l-63 0 0 225 0 225
53 0 c28 0 70 -5 92 -11z"/>
        <path d="M2227 2928 c-58 -45 -46 -228 17 -244 75 -18 110 30 104 144 -3 63
-7 77 -27 93 -27 22 -70 25 -94 7z"/>
        <path d="M3274 2914 c-25 -24 -26 -30 -23 -110 4 -76 7 -88 28 -105 30 -25 72
-24 99 1 19 18 22 31 22 110 0 77 -3 93 -20 110 -28 28 -75 26 -106 -6z"/>
    </g>
</svg>
